<?xml version="1.0" encoding="UTF-8" standalone="no"?>
<svg
   xmlns:dc="http://purl.org/dc/elements/1.1/"
   xmlns:cc="http://creativecommons.org/ns#"
   xmlns:rdf="http://www.w3.org/1999/02/22-rdf-syntax-ns#"
   xmlns:svg="http://www.w3.org/2000/svg"
   xmlns="http://www.w3.org/2000/svg"
   xmlns:sodipodi="http://sodipodi.sourceforge.net/DTD/sodipodi-0.dtd"
   xmlns:inkscape="http://www.inkscape.org/namespaces/inkscape"
   inkscape:version="1.0 (4035a4fb49, 2020-05-01)"
   sodipodi:docname="maua.svg"
   id="svg8"
   version="1.1"
   viewBox="0 0 120.71558 105.72862"
   height="105.72862mm"
   width="120.71558mm">
  <defs
     id="defs2" />
  <sodipodi:namedview
     inkscape:window-maximized="1"
     inkscape:window-y="-8"
     inkscape:window-x="-8"
     inkscape:window-height="1017"
     inkscape:window-width="1920"
     inkscape:snap-global="false"
     showgrid="false"
     inkscape:document-rotation="0"
     inkscape:current-layer="g49"
     inkscape:document-units="mm"
     inkscape:cy="288.07483"
     inkscape:cx="552.20121"
     inkscape:zoom="0.98994949"
     inkscape:pageshadow="2"
     inkscape:pageopacity="0.0"
     borderopacity="1.0"
     bordercolor="#666666"
     pagecolor="#ffffff"
     id="base" />
  <metadata
     id="metadata5">
    <rdf:RDF>
      <cc:Work
         rdf:about="">
        <dc:format>image/svg+xml</dc:format>
        <dc:type
           rdf:resource="http://purl.org/dc/dcmitype/StillImage" />
        <dc:title></dc:title>
      </cc:Work>
    </rdf:RDF>
  </metadata>
  <g
     transform="translate(-1.7674951,-1.1249709)"
     id="layer1"
     inkscape:groupmode="layer"
     inkscape:label="Layer 1">
    <g
       transform="matrix(0,0.00943365,0.00943365,0,44.513048,11.803398)"
       fill="#000000"
       stroke="none"
       id="g49">
      <path
         style="fill:#c83737"
         d="m 6953.7397,8250.9588 c -291,-52 -366,-102 -548,-362 -149,-211 -194,-252 -279,-252 -55,0 -89,21 -170,107 -60,63 -73,71 -147,96 -249,82 -508,-29 -755,-323 -177,-210 -286,-412 -368,-676 -125,-404 -137,-907 -34,-1409 66,-323 183,-694 231,-732 36,-29 61,-29 68,0 4,13 -5,80 -20,148 -65,311 -64,278 -21,564 47,318 77,435 144,574 62,128 174,226 277,245 29,5 31,2 64,-66 45,-95 147,-199 211,-217 95,-26 165,36 214,187 38,115 167,209 302,220 124,10 264,-58 321,-155 23,-40 28,-59 28,-113 -1,-94 -25,-133 -190,-300 -542,-552 -680,-718 -785,-942 -62,-132 -106,-295 -98,-365 l 3,-32 52,19 c 98,34 165,90 418,346 260,263 317,311 425,365 36,17 97,53 135,79 147,98 346,201 695,360 555,253 724,354 839,507 109,144 163,300 164,478 1,200 -54,339 -187,470 -45,44 -102,91 -127,104 l -45,24 -12,147 c -54,683 -327,990 -805,904 z"
         id="path35" />
      <path
         style="opacity:1;fill:#c83737"
         d="m 2376.7397,8133.9588 c -261,-78 -455,-277 -506,-519 -18,-86 -14,-141 16,-223 18,-48 21,-75 18,-135 -6,-99 -43,-170 -183,-349 -118,-153 -158,-220 -181,-312 -22,-86 -14,-161 30,-282 230,-634 777,-1100 1586,-1350 241,-75 578,-142 650,-131 110,18 130,77 57,166 -24,29 -128,121 -232,205 -253,202 -304,252 -348,338 -19,39 -79,142 -133,230 -169,277 -224,413 -225,552 -1,89 21,162 66,225 28,38 44,50 87,63 157,46 306,-2 448,-144 104,-105 156,-181 281,-418 53,-101 103,-191 112,-201 29,-32 95,-166 167,-337 120,-284 191,-399 271,-440 30,-16 115,-20 123,-7 3,5 -10,52 -29,106 -122,340 -191,683 -202,1006 -5,162 -3,194 28,425 30,219 34,277 34,465 -1,189 -3,226 -23,305 -41,163 -117,295 -281,485 -60,70 -129,103 -226,108 -82,4 -126,-4 -345,-64 -66,-18 -121,-26 -180,-27 -110,-1 -168,24 -269,115 -86,77 -177,129 -267,152 -92,24 -250,20 -344,-7 z"
         id="path37" />
      <path
         style="fill:#c83737"
         d="m 7636.7397,5525.9588 c -201,-10 -432,-60 -602,-129 -165,-67 -455,-248 -660,-412 -224,-180 -500,-452 -710,-701 l -99,-117 27,-10 c 53,-20 137,-23 201,-6 87,22 163,62 336,178 82,55 177,113 210,129 123,58 226,61 327,11 51,-26 56,-31 68,-77 8,-32 11,-101 10,-190 -3,-163 4,-191 61,-223 31,-18 55,-22 119,-22 44,0 93,5 109,12 15,6 71,12 123,12 87,1 101,-2 162,-31 87,-41 151,-107 197,-203 34,-70 36,-82 36,-170 0,-79 -4,-104 -24,-148 -62,-137 -240,-222 -438,-210 -44,3 -163,27 -270,54 -161,40 -198,46 -230,38 -73,-18 -75,-71 -9,-249 28,-78 34,-179 14,-246 -35,-119 -170,-189 -339,-176 -207,16 -424,146 -490,294 -95,211 -146,288 -246,369 -95,78 -180,79 -216,2 -27,-57 -38,-158 -27,-240 32,-224 110,-446 245,-698 69,-129 221,-359 302,-460 75,-93 294,-310 388,-385 343,-275 727,-399 1008,-326 337,88 613,368 742,754 33,100 65,252 65,312 0,20 16,51 50,96 87,116 180,179 420,287 421,188 488,246 661,567 121,225 162,557 100,805 -26,100 -93,247 -148,321 -52,70 -145,158 -214,202 -79,51 -132,121 -343,455 -224,354 -371,485 -594,528 -79,15 -98,15 -322,3 z"
         id="path39" />
      <path
         sodipodi:nodetypes="cccccccccccccccccccccccccscccccccccscccccsccccccscscccsccccccccccccc"
         style="fill:#c83737;fill-opacity:1"
         d="m 1340.7397,5450.9588 c -59,-29 -96,-78 -102,-133 -6,-70 11,-105 72,-146 122,-81 192,-177 183,-249 -7,-49 -63,-106 -125,-124 -61,-19 -150,-15 -196,8 -90,43 -151,123 -243.00001,319 -82,174 -74,162 -113,189 -68,46 -144,20 -185,-62 -29,-57 -33,-137 -11,-189 16,-40 77,-95 114,-102 89,-18 151,-55 177,-105 31,-59 12,-115 -56,-166 -107,-81 -225,-97 -334,-45 -102,49 -189,151 -244,287 -70,172 -237.999998,181 -312.999998,15 -51,-112 21,-210 165.999998,-224 130,-13 204,-124 141,-214 -16,-23 -146,-95 -234.999998,-131 -130,-51 -296.000002,-67 -397.000002,-37 -100,30 -179,107 -204,198 -9,33 -8,47 6,76 19,43 22,126 5,175 -13,42 -57,82 -99,91 -31,7 -75,-10 -153,-58 -106,-65 -113,-84 -113,-292 0,-165 -1,-171 -25,-206 -14,-20 -51,-57 -81.99999,-83 -152,-124 -145,-198 42.99999,-400 135,-147 134,-144 130,-231 -6,-151 34,-175 314,-185 174,-7 195,-9 252,-34 69,-29 90,-31 148,-15 55.000002,15 100.000002,64 108.000002,116 10,63 -7,123 -76.000002,268 -60,126 -62,132 -62,211 0,72 3,85 28,122 33,47 214.000002,201 301,257 113,72 229,94 316,59 31,-13 42,-23 49,-50 17,-60 -1,-93 -104,-193 -97,-93 -115,-120 -115,-170 0,-40 51,-105 102,-130 161,-77 250,52 232,341 -6,114 -6,119 20,173 33,65 89,117 172,157 74,34 149,48 207.00001,37 23,-4 45,-8 49,-9 11,0 88,-71 88,-79 0,-4 -22,-30 -50,-59 -76,-79 -130.00001,-201 -130.00001,-296 0,-84 62.00001,-160 143.00001,-173 50,-8 111,27 139,80 20,38 23,61 28,232 6,208 11.2281,228.7266 70,278 40.2297,33.7279 94,41 249,33 572,-31 1116,-175 1761,-468 289,-131 342,-158 567,-294 270,-163 371,-212 522,-255 134,-37 180,-35 277,10 159,74 261,260 232,421 -13,72 -26,95 -90,156 -480,460 -1330,750 -2263,771 -247,5 -345,-1 -610,-38 -163,-22 -342,43 -410,151 -38,60 -55,141 -53,245 3,103 -12,144 -62,170 -37,19 -116,19 -156,-1 z"
         id="path41" />
      <path
         style="fill:#c83737"
         d="m 2566.7397,3735.9588 c -282,-34 -547,-106 -790,-213 -122,-54 -267,-134 -515,-287 -224,-139 -370.00001,-369 -436.00001,-686 -20,-101 -49,-383 -49,-488 v -61 l -68,-70 c -86,-87 -115,-153 -116,-264 -1,-87 27,-160 88,-227 38,-43 130,-96 183,-108 69,-14 166.00001,-7 271.00001,20 133,34 174,27 237,-39 45,-48 62,-80 138,-258 69,-162.00003 111,-232.00003 166,-274.00003 56,-44 109,-57 197,-52 198,13 472,230 667,528.00003 98,150 266,487 427,855 141,322 264,492 405,561 52,25 71,29 145,28 66,0 97,-5 138,-23 28,-13 52,-26 52,-29 0,-2 -19,-46 -43,-96 -83,-173 -165,-291 -447,-641 -189,-233 -304,-403 -389,-570 -70,-138 -96,-219 -111,-350.00003 -11,-102 -1,-240 24,-330 69,-251 227,-418 449,-475 l 75,-19 74,26 c 97,33 212,36 280,6 58,-27 129,-91 178,-163.000002 20,-30.0000002 73,-127 118,-214.999998 103,-204 145,-268 248,-380 92,-101 170,-154 273,-185 248,-78 600,21 722,202 65,97 225,249 427,407 291,226.999998 383,317 473,465 l 43,71 v 130 c -1,150 -20,263 -69,410 -74,220.00003 -142,345.00003 -425,775.00003 -318,482 -361,566 -470,895 -61,186 -105,292 -137,328 -39,43 -78,4 -109,-109 -29,-110 1,-239 132,-561 40,-100 85,-221 100,-270 65,-222 30,-463 -83,-562 -57,-51 -101,-71 -155,-71 -69,0 -118,38 -228,175 -170,213 -248,269 -367,264 -157,-7 -229,-3 -279,14 -252,86 -275,305 -74,715 37,75 97,190 133,255 l 67,119 -24,47 c -31,60 -103,126 -152,140 -134,37 -274,-16 -621,-236 -183,-116 -299,-181 -383,-213 -19,-8 -52,-29 -74,-48 -21,-19 -64,-46 -95,-61 -50,-23 -68,-26 -171,-26 -109,0 -118,2 -182,33 -80,39 -159,120 -182,188 -62,183 63,379 319,499 114,54 200,76 482,126 126,22 262,49 303,60 96,25 247,100 302,148 l 42,38 -79,26 c -128,42 -220,63 -400,93 -108,19 -544,27 -655,13 z"
         id="path43" />
      <path
         style="fill:#adc178;fill-opacity:1;stroke:#adc178;stroke-opacity:1"
         d="m 8251.7397,1811.9588 c -5,-2 -29,-9 -53,-15 -62,-16 -97,-52 -223,-232 -165,-237 -276,-341 -441,-410 -129,-54 -311,-91 -520,-104 -60,-4 -108,-8 -108,-10 0,-10 258,-268.00003 342,-341.00003 303,-266 531,-353 1118,-428 382,-48 639,-104 757,-163 114,-58.000002 176,-156.000002 153,-243 -29,-106 -216,-201 -475,-240 -126,-19 -385,-17 -510,5 -292,52 -618,217 -950,482 -226,180 -542,522 -723,781 -98,141.00003 -88,130.00003 -105,113.00003 -51,-51.00003 -80,-286.00003 -58,-466.00003 30,-242 148,-607.000002 284,-879 205,-412 596,-717.99997 1032,-808.99997 194,-40 580,-50 842,-21 501,56 928,221.99997 1221,474.99997 149,129 229.0003,251 239.0003,368 5,52 -1,76 -55,231.999998 C 9844.7397,409.95877 9577.7397,999.95877 9442.7397,1177.9588 c -207,273 -499,477 -851,595 -94,31 -126,37 -220,40 -60,2 -114,2 -120,-1 z"
         id="path45" />
      <path
         style="fill:#adc178;fill-opacity:1"
         d="m 5845.7397,-336.04123 c -229,-79 -422,-315 -543,-664.99997 -129,-373 -182,-775 -206,-1577 -16,-552 -36,-751 -84,-843 -21,-41 -73,-82 -102,-82 -101,0 -250,160 -332,357 -79,190 -112,368 -112,606 0,305 77,720 195,1046 71,197 113,330 129,408 l 14,64 -32,-7 c -180,-39 -376,-153 -514,-298 -414,-438 -555,-1250 -332,-1918 146,-439 449,-834 838,-1092 115,-76 340,-186 394,-193 116,-14 237,103 262,254 9,48 100,232 194,388 36,61 168,265 292,455 267,406 347,539 440,732 288,598 363,1186 214,1676 -92,302.99997 -321,610.99997 -507,679.99997 -88,33 -134,35 -208,9 z"
         id="path47" />
      <rect
         transform="matrix(0,1,1,0,0,0)"
         y="1128.896"
         x="4483.8203"
         height="280.46762"
         width="32.554276"
         id="rect916"
         style="opacity:0.032258;fill:#ffe680;fill-opacity:1;stroke:#adc178;stroke-width:28.0468;stroke-opacity:1" />
    </g>
  </g>
</svg>
